#N canvas 432 56 844 675 10;
#X text 10 7 sig2pix - visualizer;
#X obj 11 35 bng 15 250 50 0 empty empty empty 17 7 0 10 -262144 -1
-1;
#X obj 11 60 openpanel;
#N canvas 0 22 450 300 (subpatch) 0;
#X array loop 261336 float 2;
#X coords 0 1 261336 -1 250 140 1;
#X restore 564 21 graph;
#X msg 11 87 read -resize \$1 loop;
#X obj 11 113 soundfiler;
#X text 78 113 reads audio into memory;
#X obj 11 454 tabread4~ loop;
#X obj 11 427 *~;
#X obj 11 523 *~ 0.7;
#X obj 11 555 dac~;
#X obj 567 168 hsl 245 15 0 1 0 0 empty empty empty -2 -8 0 10 -232576
-1 -1 20536 1;
#X obj 41 362 unsig~ 50;
#X obj 11 149 expr 44100 / $f1;
#X obj 513 29 vsl 15 128 0.5 1.5 0 1 empty empty empty 0 -9 0 10 -262144
-1 -1 8400 1;
#X text 530 82 tempo;
#X obj 22 211 t b f;
#X floatatom 11 235 5 0 0 0 - - -;
#X obj 11 260 *;
#X text 50 233 multiplies 'correct' tempo by adjustment;
#X text 531 145 0.5;
#X text 532 23 1.5;
#X obj 11 340 phasor~;
#X obj 249 438 *;
#X obj 271 338 bng 15 250 50 0 empty empty empty 17 7 0 10 -262144
-1 -1;
#X obj 298 167 expr $f1 / 44100;
#X floatatom 298 191 5 0 0 0 - - -;
#X obj 271 318 metro;
#X obj 224 140 tgl 15 0 empty empty empty 17 7 0 10 -262144 -1 -1 0
1;
#X obj 298 274 * 1000;
#X floatatom 298 298 5 0 0 0 - - -;
#X obj 144 324 bng 15 250 50 0 empty empty empty 17 7 0 10 -262144
-1 -1;
#X msg 139 346 0;
#X obj 513 169 t b f;
#X obj 297 220 /;
#X text 99 52 TODO: start / stop button;
#X obj 200 544 gemhead;
#X obj 200 602 pix_texture;
#N canvas 0 22 450 300 gemwin 0;
#X obj 132 136 gemwin;
#X obj 67 89 outlet;
#X obj 67 10 inlet;
#X msg 67 70 set destroy;
#X msg 132 112 create \, 1;
#X msg 198 112 destroy;
#X msg 156 71 set create+DSP;
#X obj 67 41 route create+DSP;
#X msg 102 163 \; pd dsp 1;
#X connect 2 0 7 0;
#X connect 3 0 1 0;
#X connect 4 0 0 0;
#X connect 5 0 0 0;
#X connect 6 0 1 0;
#X connect 7 0 3 0;
#X connect 7 0 4 0;
#X connect 7 0 8 0;
#X connect 7 1 6 0;
#X connect 7 1 5 0;
#X restore 392 70 pd gemwin;
#X msg 391 52 destroy;
#X text 388 30 Create window:;
#X obj 200 624 square 3;
#X obj 200 575 pix_sig2pix~;
#X msg 284 602 quality 0;
#X floatatom 46 475 5 0 0 0 - - -;
#X obj 46 496 / 100;
#X text 332 190 orig. len in sec;
#X text 241 140 start/stop;
#N canvas 797 91 643 657 launchpad_IO 1;
#X obj 13 38 notein;
#X floatatom 85 55 5 0 0 0 - - -;
#X floatatom 85 120 5 0 0 0 - - -;
#X text 80 135 column;
#X obj 420 90 noteout;
#X text 16 17 input;
#X obj 86 88 % 16;
#X text 391 254 pretty colors:;
#X text 391 274 59 (yellow);
#X text 392 292 71 (red);
#X text 391 311 116 (green);
#X text 390 330 87 (red-orange);
#X msg 447 35 116;
#X obj 136 85 / 16;
#X floatatom 140 120 5 0 0 0 - - -;
#X obj 136 54 -;
#X text 137 132 row;
#X floatatom 75 169 5 0 0 0 - - -;
#X obj 42 197 spigot;
#X obj 26 260 tgl 15 0 empty empty empty 17 7 0 10 -262144 -1 -1 0
1;
#X obj 46 260 tgl 15 0 empty empty empty 17 7 0 10 -262144 -1 -1 0
1;
#X obj 66 260 tgl 15 0 empty empty empty 17 7 0 10 -262144 -1 -1 0
1;
#X obj 86 260 tgl 15 0 empty empty empty 17 7 0 10 -262144 -1 -1 0
1;
#X obj 106 260 tgl 15 0 empty empty empty 17 7 0 10 -262144 -1 -1 0
1;
#X obj 126 260 tgl 15 0 empty empty empty 17 7 0 10 -262144 -1 -1 0
1;
#X obj 147 260 tgl 15 0 empty empty empty 17 7 0 10 -262144 -1 -1 0
1;
#X obj 169 260 tgl 15 0 empty empty empty 17 7 0 10 -262144 -1 -1 0
1;
#X obj 42 228 select 0 1 2 3 4 5 6 7;
#X obj 37 393 * 116;
#X obj 93 395 * 116;
#X obj 161 397 * 116;
#X obj 243 396 * 116;
#X obj 314 399 * 116;
#X obj 389 402 * 116;
#X obj 465 408 * 116;
#X obj 533 408 * 116;
#X obj 9 418 noteout;
#X obj 74 416 noteout;
#X obj 135 419 noteout;
#X obj 224 416 noteout;
#X obj 291 423 noteout;
#X obj 370 422 noteout;
#X obj 436 428 noteout;
#X obj 504 430 noteout;
#X msg 10 389 0;
#X msg 67 395 1;
#X msg 131 399 2;
#X msg 213 393 3;
#X msg 288 401 4;
#X msg 359 403 5;
#X msg 436 405 6;
#X msg 504 409 7;
#X obj 14 559 outlet;
#X obj 62 559 outlet;
#X obj 108 564 outlet;
#X obj 154 567 outlet;
#X obj 201 562 outlet;
#X obj 274 567 outlet;
#X obj 326 567 outlet;
#X obj 390 564 outlet;
#X obj 485 531 bng 15 250 50 0 empty empty empty 17 7 0 10 -262144
-1 -1;
#X obj 349 526 * 8;
#X obj 303 523 * 7;
#X obj 256 521 * 6;
#X obj 206 520 * 5;
#X obj 156 534 * 4;
#X obj 111 531 * 3;
#X obj 64 529 * 2;
#X obj 14 527 * 1;
#X connect 0 0 1 0;
#X connect 0 1 17 0;
#X connect 1 0 6 0;
#X connect 1 0 15 0;
#X connect 1 0 18 0;
#X connect 2 0 15 1;
#X connect 6 0 2 0;
#X connect 12 0 4 1;
#X connect 13 0 14 0;
#X connect 15 0 13 0;
#X connect 17 0 18 1;
#X connect 18 0 27 0;
#X connect 19 0 28 0;
#X connect 19 0 60 0;
#X connect 19 0 68 0;
#X connect 20 0 29 0;
#X connect 20 0 60 0;
#X connect 20 0 67 0;
#X connect 21 0 30 0;
#X connect 21 0 60 0;
#X connect 21 0 66 0;
#X connect 22 0 31 0;
#X connect 22 0 60 0;
#X connect 22 0 65 0;
#X connect 23 0 32 0;
#X connect 23 0 60 0;
#X connect 23 0 64 0;
#X connect 24 0 33 0;
#X connect 24 0 60 0;
#X connect 24 0 63 0;
#X connect 25 0 34 0;
#X connect 25 0 60 0;
#X connect 25 0 62 0;
#X connect 26 0 35 0;
#X connect 26 0 60 0;
#X connect 26 0 61 0;
#X connect 27 0 19 0;
#X connect 27 0 44 0;
#X connect 27 1 20 0;
#X connect 27 1 45 0;
#X connect 27 2 21 0;
#X connect 27 2 46 0;
#X connect 27 3 22 0;
#X connect 27 3 47 0;
#X connect 27 4 23 0;
#X connect 27 4 48 0;
#X connect 27 5 24 0;
#X connect 27 5 49 0;
#X connect 27 6 25 0;
#X connect 27 6 50 0;
#X connect 27 7 26 0;
#X connect 27 7 51 0;
#X connect 28 0 36 1;
#X connect 29 0 37 1;
#X connect 30 0 38 1;
#X connect 31 0 39 1;
#X connect 32 0 40 1;
#X connect 33 0 41 1;
#X connect 34 0 42 1;
#X connect 35 0 43 1;
#X connect 44 0 36 0;
#X connect 45 0 37 0;
#X connect 46 0 38 0;
#X connect 47 0 39 0;
#X connect 48 0 40 0;
#X connect 49 0 41 0;
#X connect 50 0 42 0;
#X connect 51 0 43 0;
#X connect 61 0 59 0;
#X connect 62 0 58 0;
#X connect 63 0 57 0;
#X connect 64 0 56 0;
#X connect 65 0 55 0;
#X connect 66 0 54 0;
#X connect 67 0 53 0;
#X connect 68 0 52 0;
#X restore 419 280 pd launchpad_IO;
#X obj 416 353 pack f f f f f f f f;
#X obj 298 252 / 8;
#X msg 235 404 0.125;
#X obj 583 309 t b f;
#X obj 417 310 t b f;
#X obj 458 311 t b f;
#X obj 502 311 t b f;
#X obj 542 311 t b f;
#X obj 377 310 t b f;
#X obj 337 309 t b f;
#X obj 282 402 pdj Beatslice;
#X obj 284 575 loadbang;
#X obj 258 59 ctlin;
#X obj 271 84 select 104;
#X obj 224 83 spigot;
#X obj 237 118 spigot;
#X msg 296 110 1;
#X text 330 112 TODO: quantize start/stop;
#X connect 1 0 2 0;
#X connect 2 0 4 0;
#X connect 4 0 5 0;
#X connect 5 0 13 0;
#X connect 5 0 8 1;
#X connect 5 0 25 0;
#X connect 7 0 9 0;
#X connect 8 0 7 0;
#X connect 9 0 10 0;
#X connect 9 0 10 1;
#X connect 9 0 42 0;
#X connect 9 0 42 2;
#X connect 12 0 11 0;
#X connect 13 0 17 0;
#X connect 14 0 16 0;
#X connect 14 0 33 0;
#X connect 16 0 17 0;
#X connect 16 1 18 1;
#X connect 17 0 18 0;
#X connect 18 0 22 0;
#X connect 22 0 12 0;
#X connect 22 0 8 0;
#X connect 23 0 22 1;
#X connect 24 0 51 0;
#X connect 24 0 59 0;
#X connect 24 0 65 0;
#X connect 25 0 26 0;
#X connect 26 0 34 0;
#X connect 27 0 24 0;
#X connect 28 0 27 0;
#X connect 28 0 31 0;
#X connect 29 0 30 0;
#X connect 30 0 27 1;
#X connect 31 0 32 0;
#X connect 32 0 22 1;
#X connect 33 0 26 0;
#X connect 33 1 34 1;
#X connect 34 0 50 0;
#X connect 36 0 42 0;
#X connect 37 0 41 0;
#X connect 38 0 39 0;
#X connect 39 0 38 0;
#X connect 42 0 37 0;
#X connect 43 0 37 0;
#X connect 44 0 45 0;
#X connect 45 0 9 1;
#X connect 48 0 49 0;
#X connect 48 1 58 0;
#X connect 48 2 57 0;
#X connect 48 3 53 0;
#X connect 48 4 54 0;
#X connect 48 5 55 0;
#X connect 48 6 56 0;
#X connect 48 7 52 0;
#X connect 49 0 59 0;
#X connect 50 0 29 0;
#X connect 51 0 23 0;
#X connect 52 0 49 0;
#X connect 52 1 49 7;
#X connect 53 0 49 0;
#X connect 53 1 49 3;
#X connect 54 0 49 0;
#X connect 54 1 49 4;
#X connect 55 0 49 0;
#X connect 55 1 49 5;
#X connect 56 0 49 0;
#X connect 56 1 49 6;
#X connect 57 0 49 0;
#X connect 57 1 49 2;
#X connect 58 0 49 0;
#X connect 58 1 49 1;
#X connect 59 0 23 1;
#X connect 60 0 43 0;
#X connect 61 0 63 1;
#X connect 61 1 62 0;
#X connect 62 0 63 0;
#X connect 63 0 64 0;
#X connect 64 0 28 0;
#X connect 65 0 64 1;
